<?xml version="1.0" encoding="UTF-8" standalone="no"?>
<svg xmlns="http://www.w3.org/2000/svg" version="1.1" viewBox="0 0 560 204">
   <polyline fill="none" points="329,115 329,185 419,185 419,115" stroke="rgb(0, 100, 0)" stroke-linecap="square" stroke-width="3.0"/>
   <polyline fill="none" points="239,115 239,185 329,185" stroke="rgb(0, 100, 0)" stroke-linecap="square" stroke-width="3.0"/>
   <polyline fill="none" points="149,185 239,185" stroke="rgb(0, 100, 0)" stroke-linecap="square" stroke-width="3.0"/>
   <polyline fill="none" points="99,145 99,105 119,105" stroke="rgb(0, 100, 0)" stroke-linecap="square" stroke-width="3.0"/>
   <polyline fill="none" points="69,145 99,145 199,145 289,145 379,145 379,105 389,105" stroke="rgb(0, 100, 0)" stroke-linecap="square" stroke-width="3.0"/>
   <polyline fill="none" points="199,145 199,105 209,105" stroke="rgb(0, 100, 0)" stroke-linecap="square" stroke-width="3.0"/>
   <polyline fill="none" points="289,145 289,105 299,105" stroke="rgb(0, 100, 0)" stroke-linecap="square" stroke-width="3.0"/>
   <polyline fill="none" points="389,15 389,65 359,65" stroke="rgb(0, 100, 0)" stroke-linecap="square" stroke-width="3.0"/>
   <polyline fill="none" points="209,15 209,65 179,65" stroke="rgb(0, 100, 0)" stroke-linecap="square" stroke-width="3.0"/>
   <polyline fill="none" points="299,15 299,65 269,65" stroke="rgb(0, 100, 0)" stroke-linecap="square" stroke-width="3.0"/>
   <polyline fill="none" points="449,65 479,65 479,15 489,15" stroke="rgb(0, 100, 0)" stroke-linecap="square" stroke-width="3.0"/>
   <ellipse cx="299.0" cy="65.0" fill="rgb(0, 100, 0)" rx="5.0" ry="5.0" stroke="none" stroke-width="3.0"/>
   <ellipse cx="99.0" cy="145.0" fill="rgb(0, 100, 0)" rx="5.0" ry="5.0" stroke="none" stroke-width="3.0"/>
   <ellipse cx="329.0" cy="185.0" fill="rgb(0, 100, 0)" rx="5.0" ry="5.0" stroke="none" stroke-width="3.0"/>
   <ellipse cx="209.0" cy="65.0" fill="rgb(0, 100, 0)" rx="5.0" ry="5.0" stroke="none" stroke-width="3.0"/>
   <ellipse cx="289.0" cy="145.0" fill="rgb(0, 100, 0)" rx="5.0" ry="5.0" stroke="none" stroke-width="3.0"/>
   <ellipse cx="239.0" cy="185.0" fill="rgb(0, 100, 0)" rx="5.0" ry="5.0" stroke="none" stroke-width="3.0"/>
   <ellipse cx="199.0" cy="145.0" fill="rgb(0, 100, 0)" rx="5.0" ry="5.0" stroke="none" stroke-width="3.0"/>
   <ellipse cx="149.0" cy="185.0" fill="rgb(0, 100, 0)" rx="5.0" ry="5.0" stroke="none" stroke-width="3.0"/>
   <ellipse cx="389.0" cy="65.0" fill="rgb(0, 100, 0)" rx="5.0" ry="5.0" stroke="none" stroke-width="3.0"/>
   <polyline fill="none" points="213,15 210,15" stroke="rgb(0, 100, 0)" stroke-linecap="square" stroke-width="3.0"/>
   <polygon fill="none" points="239,6 249,15 239,24 215,24 215,6" stroke="rgb(0, 0, 0)" stroke-linecap="square" stroke-width="2.0"/>
   <text fill="rgb(0, 0, 255)" font-family="Monospaced" font-size="12" x="234.0" y="22.0">b</text>
   <text fill="rgb(0, 0, 0)" font-family="Monospaced" font-size="12" x="226.0" y="19.0">0</text>
   <text fill="rgb(0, 0, 255)" font-family="Monospaced" font-size="16" font-weight="bold" x="251.0" y="24.0">Qa</text>
   <ellipse cx="209.0" cy="15.0" fill="rgb(0, 100, 0)" rx="2.0" ry="2.0" stroke="none" stroke-width="2.0"/>
   <polyline fill="none" points="303,15 300,15" stroke="rgb(0, 100, 0)" stroke-linecap="square" stroke-width="3.0"/>
   <polygon fill="none" points="329,6 339,15 329,24 305,24 305,6" stroke="rgb(0, 0, 0)" stroke-linecap="square" stroke-width="2.0"/>
   <text fill="rgb(0, 0, 255)" font-family="Monospaced" font-size="12" x="324.0" y="22.0">b</text>
   <text fill="rgb(0, 0, 0)" font-family="Monospaced" font-size="12" x="316.0" y="19.0">0</text>
   <text fill="rgb(0, 0, 255)" font-family="Monospaced" font-size="16" font-weight="bold" x="341.0" y="24.0">Qb</text>
   <ellipse cx="299.0" cy="15.0" fill="rgb(0, 100, 0)" rx="2.0" ry="2.0" stroke="none" stroke-width="2.0"/>
   <polyline fill="none" points="84,185 89,185 149,185 149,115" stroke="rgb(0, 100, 0)" stroke-linecap="square" stroke-width="3.0"/>
   <polygon fill="none" points="74,194 84,185 74,176 50,176 50,194" stroke="rgb(0, 0, 0)" stroke-linecap="square" stroke-width="2.0"/>
   <text fill="rgb(0, 0, 255)" font-family="Monospaced" font-size="12" x="69.0" y="192.0">b</text>
   <ellipse cx="64.0" cy="184.0" fill="rgb(0, 100, 0)" rx="4.5" ry="7.0" stroke="none" stroke-width="2.0"/>
   <text fill="rgb(255, 255, 255)" font-family="Monospaced" font-size="12" x="61.0" y="189.0">0</text>
   <text fill="rgb(0, 0, 255)" font-family="Monospaced" font-size="16" font-weight="bold" x="5.0" y="194.0">Clear</text>
   <ellipse cx="89.0" cy="185.0" fill="rgb(0, 100, 0)" rx="2.0" ry="2.0" stroke="none" stroke-width="2.0"/>
   <polyline fill="none" points="309,55 348,55" stroke="rgb(0, 0, 0)" stroke-linecap="square" stroke-width="2.0"/>
   <polyline fill="none" points="349,55 349,114" stroke="rgb(0, 0, 0)" stroke-linecap="square" stroke-width="2.0"/>
   <polyline fill="none" points="349,115 310,115" stroke="rgb(0, 0, 0)" stroke-linecap="square" stroke-width="2.0"/>
   <polyline fill="none" points="309,115 309,56" stroke="rgb(0, 0, 0)" stroke-linecap="square" stroke-width="2.0"/>
   <ellipse cx="329.0" cy="85.0" fill="rgb(0, 100, 0)" rx="7.0" ry="7.0" stroke="none" stroke-width="2.0"/>
   <text fill="rgb(255, 255, 255)" font-family="SansSerif" font-size="12" x="326.0" y="90.0">0</text>
   <ellipse cx="329.0" cy="115.0" fill="rgb(0, 100, 0)" rx="2.0" ry="2.0" stroke="none" stroke-width="2.0"/>
   <text fill="rgb(153, 153, 153)" font-family="SansSerif" font-size="12" x="326.0" y="112.0">R</text>
   <ellipse cx="329.0" cy="55.0" fill="rgb(40, 40, 255)" rx="2.0" ry="2.0" stroke="none" stroke-width="2.0"/>
   <text fill="rgb(153, 153, 153)" font-family="SansSerif" font-size="12" x="326.0" y="71.0">S</text>
   <polyline fill="none" points="299,65 308,65" stroke="rgb(0, 0, 0)" stroke-linecap="square" stroke-width="3.0"/>
   <ellipse cx="299.0" cy="65.0" fill="rgb(0, 100, 0)" rx="2.0" ry="2.0" stroke="none" stroke-width="3.0"/>
   <text fill="rgb(0, 0, 0)" font-family="SansSerif" font-size="12" x="313.0" y="70.0">D</text>
   <polyline fill="none" points="310,101 317,105 310,109" stroke="rgb(0, 0, 0)" stroke-linecap="square" stroke-width="2.0"/>
   <polyline fill="none" points="299,105 308,105" stroke="rgb(0, 0, 0)" stroke-linecap="square" stroke-width="2.0"/>
   <ellipse cx="299.0" cy="105.0" fill="rgb(0, 100, 0)" rx="2.0" ry="2.0" stroke="none" stroke-width="2.0"/>
   <polyline fill="none" points="350,65 359,65" stroke="rgb(0, 0, 0)" stroke-linecap="square" stroke-width="3.0"/>
   <text fill="rgb(0, 0, 0)" font-family="SansSerif" font-size="12" x="336.0" y="70.0">Q</text>
   <ellipse cx="359.0" cy="65.0" fill="rgb(0, 100, 0)" rx="2.0" ry="2.0" stroke="none" stroke-width="3.0"/>
   <ellipse cx="354.0" cy="105.0" fill="none" rx="5.0" ry="5.0" stroke="rgb(0, 0, 0)" stroke-width="2.0"/>
   <ellipse cx="359.0" cy="105.0" fill="rgb(0, 210, 0)" rx="2.0" ry="2.0" stroke="none" stroke-width="2.0"/>
   <polyline fill="none" points="129,55 168,55" stroke="rgb(0, 0, 0)" stroke-linecap="square" stroke-width="2.0"/>
   <polyline fill="none" points="169,55 169,114" stroke="rgb(0, 0, 0)" stroke-linecap="square" stroke-width="2.0"/>
   <polyline fill="none" points="169,115 130,115" stroke="rgb(0, 0, 0)" stroke-linecap="square" stroke-width="2.0"/>
   <polyline fill="none" points="129,115 129,56" stroke="rgb(0, 0, 0)" stroke-linecap="square" stroke-width="2.0"/>
   <ellipse cx="149.0" cy="85.0" fill="rgb(0, 100, 0)" rx="7.0" ry="7.0" stroke="none" stroke-width="2.0"/>
   <text fill="rgb(255, 255, 255)" font-family="SansSerif" font-size="12" x="146.0" y="90.0">0</text>
   <ellipse cx="149.0" cy="115.0" fill="rgb(0, 100, 0)" rx="2.0" ry="2.0" stroke="none" stroke-width="2.0"/>
   <text fill="rgb(153, 153, 153)" font-family="SansSerif" font-size="12" x="146.0" y="112.0">R</text>
   <ellipse cx="149.0" cy="55.0" fill="rgb(40, 40, 255)" rx="2.0" ry="2.0" stroke="none" stroke-width="2.0"/>
   <text fill="rgb(153, 153, 153)" font-family="SansSerif" font-size="12" x="146.0" y="71.0">S</text>
   <polyline fill="none" points="119,65 128,65" stroke="rgb(0, 0, 0)" stroke-linecap="square" stroke-width="3.0"/>
   <ellipse cx="119.0" cy="65.0" fill="rgb(0, 100, 0)" rx="2.0" ry="2.0" stroke="none" stroke-width="3.0"/>
   <text fill="rgb(0, 0, 0)" font-family="SansSerif" font-size="12" x="133.0" y="70.0">D</text>
   <polyline fill="none" points="130,101 137,105 130,109" stroke="rgb(0, 0, 0)" stroke-linecap="square" stroke-width="2.0"/>
   <polyline fill="none" points="119,105 128,105" stroke="rgb(0, 0, 0)" stroke-linecap="square" stroke-width="2.0"/>
   <ellipse cx="119.0" cy="105.0" fill="rgb(0, 100, 0)" rx="2.0" ry="2.0" stroke="none" stroke-width="2.0"/>
   <polyline fill="none" points="170,65 179,65" stroke="rgb(0, 0, 0)" stroke-linecap="square" stroke-width="3.0"/>
   <text fill="rgb(0, 0, 0)" font-family="SansSerif" font-size="12" x="156.0" y="70.0">Q</text>
   <ellipse cx="179.0" cy="65.0" fill="rgb(0, 100, 0)" rx="2.0" ry="2.0" stroke="none" stroke-width="3.0"/>
   <ellipse cx="174.0" cy="105.0" fill="none" rx="5.0" ry="5.0" stroke="rgb(0, 0, 0)" stroke-width="2.0"/>
   <ellipse cx="179.0" cy="105.0" fill="rgb(0, 210, 0)" rx="2.0" ry="2.0" stroke="none" stroke-width="2.0"/>
   <polyline fill="none" points="84,65 89,65 119,65" stroke="rgb(0, 100, 0)" stroke-linecap="square" stroke-width="3.0"/>
   <polygon fill="none" points="74,74 84,65 74,56 50,56 50,74" stroke="rgb(0, 0, 0)" stroke-linecap="square" stroke-width="2.0"/>
   <text fill="rgb(0, 0, 255)" font-family="Monospaced" font-size="12" x="69.0" y="72.0">b</text>
   <ellipse cx="64.0" cy="64.0" fill="rgb(0, 100, 0)" rx="4.5" ry="7.0" stroke="none" stroke-width="2.0"/>
   <text fill="rgb(255, 255, 255)" font-family="Monospaced" font-size="12" x="61.0" y="69.0">0</text>
   <text fill="rgb(0, 0, 255)" font-family="Monospaced" font-size="16" font-weight="bold" x="34.0" y="74.0">D</text>
   <ellipse cx="89.0" cy="65.0" fill="rgb(0, 100, 0)" rx="2.0" ry="2.0" stroke="none" stroke-width="2.0"/>
   <polyline fill="none" points="219,55 258,55" stroke="rgb(0, 0, 0)" stroke-linecap="square" stroke-width="2.0"/>
   <polyline fill="none" points="259,55 259,114" stroke="rgb(0, 0, 0)" stroke-linecap="square" stroke-width="2.0"/>
   <polyline fill="none" points="259,115 220,115" stroke="rgb(0, 0, 0)" stroke-linecap="square" stroke-width="2.0"/>
   <polyline fill="none" points="219,115 219,56" stroke="rgb(0, 0, 0)" stroke-linecap="square" stroke-width="2.0"/>
   <ellipse cx="239.0" cy="85.0" fill="rgb(0, 100, 0)" rx="7.0" ry="7.0" stroke="none" stroke-width="2.0"/>
   <text fill="rgb(255, 255, 255)" font-family="SansSerif" font-size="12" x="236.0" y="90.0">0</text>
   <ellipse cx="239.0" cy="115.0" fill="rgb(0, 100, 0)" rx="2.0" ry="2.0" stroke="none" stroke-width="2.0"/>
   <text fill="rgb(153, 153, 153)" font-family="SansSerif" font-size="12" x="236.0" y="112.0">R</text>
   <ellipse cx="239.0" cy="55.0" fill="rgb(40, 40, 255)" rx="2.0" ry="2.0" stroke="none" stroke-width="2.0"/>
   <text fill="rgb(153, 153, 153)" font-family="SansSerif" font-size="12" x="236.0" y="71.0">S</text>
   <polyline fill="none" points="209,65 218,65" stroke="rgb(0, 0, 0)" stroke-linecap="square" stroke-width="3.0"/>
   <ellipse cx="209.0" cy="65.0" fill="rgb(0, 100, 0)" rx="2.0" ry="2.0" stroke="none" stroke-width="3.0"/>
   <text fill="rgb(0, 0, 0)" font-family="SansSerif" font-size="12" x="223.0" y="70.0">D</text>
   <polyline fill="none" points="220,101 227,105 220,109" stroke="rgb(0, 0, 0)" stroke-linecap="square" stroke-width="2.0"/>
   <polyline fill="none" points="209,105 218,105" stroke="rgb(0, 0, 0)" stroke-linecap="square" stroke-width="2.0"/>
   <ellipse cx="209.0" cy="105.0" fill="rgb(0, 100, 0)" rx="2.0" ry="2.0" stroke="none" stroke-width="2.0"/>
   <polyline fill="none" points="260,65 269,65" stroke="rgb(0, 0, 0)" stroke-linecap="square" stroke-width="3.0"/>
   <text fill="rgb(0, 0, 0)" font-family="SansSerif" font-size="12" x="246.0" y="70.0">Q</text>
   <ellipse cx="269.0" cy="65.0" fill="rgb(0, 100, 0)" rx="2.0" ry="2.0" stroke="none" stroke-width="3.0"/>
   <ellipse cx="264.0" cy="105.0" fill="none" rx="5.0" ry="5.0" stroke="rgb(0, 0, 0)" stroke-width="2.0"/>
   <ellipse cx="269.0" cy="105.0" fill="rgb(0, 210, 0)" rx="2.0" ry="2.0" stroke="none" stroke-width="2.0"/>
   <polyline fill="none" points="49,135 68,135" stroke="rgb(0, 0, 0)" stroke-linecap="square" stroke-width="2.0"/>
   <polyline fill="none" points="69,135 69,154" stroke="rgb(0, 0, 0)" stroke-linecap="square" stroke-width="2.0"/>
   <polyline fill="none" points="69,155 50,155" stroke="rgb(0, 0, 0)" stroke-linecap="square" stroke-width="2.0"/>
   <polyline fill="none" points="49,155 49,136" stroke="rgb(0, 0, 0)" stroke-linecap="square" stroke-width="2.0"/>
   <text fill="rgb(0, 0, 255)" font-family="SansSerif" font-size="16" font-weight="bold" x="17.0" y="154.0">CLK</text>
   <polyline fill="none" points="53,145 53,149 59,149 59,141 65,141 65,145" stroke="rgb(0, 100, 0)" stroke-linecap="square" stroke-width="2.0"/>
   <ellipse cx="69.0" cy="145.0" fill="rgb(0, 100, 0)" rx="2.0" ry="2.0" stroke="none" stroke-width="2.0"/>
   <polyline fill="none" points="399,55 438,55" stroke="rgb(0, 0, 0)" stroke-linecap="square" stroke-width="2.0"/>
   <polyline fill="none" points="439,55 439,114" stroke="rgb(0, 0, 0)" stroke-linecap="square" stroke-width="2.0"/>
   <polyline fill="none" points="439,115 400,115" stroke="rgb(0, 0, 0)" stroke-linecap="square" stroke-width="2.0"/>
   <polyline fill="none" points="399,115 399,56" stroke="rgb(0, 0, 0)" stroke-linecap="square" stroke-width="2.0"/>
   <ellipse cx="419.0" cy="85.0" fill="rgb(0, 100, 0)" rx="7.0" ry="7.0" stroke="none" stroke-width="2.0"/>
   <text fill="rgb(255, 255, 255)" font-family="SansSerif" font-size="12" x="416.0" y="90.0">0</text>
   <ellipse cx="419.0" cy="115.0" fill="rgb(0, 100, 0)" rx="2.0" ry="2.0" stroke="none" stroke-width="2.0"/>
   <text fill="rgb(153, 153, 153)" font-family="SansSerif" font-size="12" x="416.0" y="112.0">R</text>
   <ellipse cx="419.0" cy="55.0" fill="rgb(40, 40, 255)" rx="2.0" ry="2.0" stroke="none" stroke-width="2.0"/>
   <text fill="rgb(153, 153, 153)" font-family="SansSerif" font-size="12" x="416.0" y="71.0">S</text>
   <polyline fill="none" points="389,65 398,65" stroke="rgb(0, 0, 0)" stroke-linecap="square" stroke-width="3.0"/>
   <ellipse cx="389.0" cy="65.0" fill="rgb(0, 100, 0)" rx="2.0" ry="2.0" stroke="none" stroke-width="3.0"/>
   <text fill="rgb(0, 0, 0)" font-family="SansSerif" font-size="12" x="403.0" y="70.0">D</text>
   <polyline fill="none" points="400,101 407,105 400,109" stroke="rgb(0, 0, 0)" stroke-linecap="square" stroke-width="2.0"/>
   <polyline fill="none" points="389,105 398,105" stroke="rgb(0, 0, 0)" stroke-linecap="square" stroke-width="2.0"/>
   <ellipse cx="389.0" cy="105.0" fill="rgb(0, 100, 0)" rx="2.0" ry="2.0" stroke="none" stroke-width="2.0"/>
   <polyline fill="none" points="440,65 449,65" stroke="rgb(0, 0, 0)" stroke-linecap="square" stroke-width="3.0"/>
   <text fill="rgb(0, 0, 0)" font-family="SansSerif" font-size="12" x="426.0" y="70.0">Q</text>
   <ellipse cx="449.0" cy="65.0" fill="rgb(0, 100, 0)" rx="2.0" ry="2.0" stroke="none" stroke-width="3.0"/>
   <ellipse cx="444.0" cy="105.0" fill="none" rx="5.0" ry="5.0" stroke="rgb(0, 0, 0)" stroke-width="2.0"/>
   <ellipse cx="449.0" cy="105.0" fill="rgb(0, 210, 0)" rx="2.0" ry="2.0" stroke="none" stroke-width="2.0"/>
   <polyline fill="none" points="393,15 390,15" stroke="rgb(0, 100, 0)" stroke-linecap="square" stroke-width="3.0"/>
   <polygon fill="none" points="419,6 429,15 419,24 395,24 395,6" stroke="rgb(0, 0, 0)" stroke-linecap="square" stroke-width="2.0"/>
   <text fill="rgb(0, 0, 255)" font-family="Monospaced" font-size="12" x="414.0" y="22.0">b</text>
   <text fill="rgb(0, 0, 0)" font-family="Monospaced" font-size="12" x="406.0" y="19.0">0</text>
   <text fill="rgb(0, 0, 255)" font-family="Monospaced" font-size="16" font-weight="bold" x="431.0" y="24.0">Qc</text>
   <ellipse cx="389.0" cy="15.0" fill="rgb(0, 100, 0)" rx="2.0" ry="2.0" stroke="none" stroke-width="2.0"/>
   <polyline fill="none" points="493,15 490,15" stroke="rgb(0, 100, 0)" stroke-linecap="square" stroke-width="3.0"/>
   <polygon fill="none" points="519,6 529,15 519,24 495,24 495,6" stroke="rgb(0, 0, 0)" stroke-linecap="square" stroke-width="2.0"/>
   <text fill="rgb(0, 0, 255)" font-family="Monospaced" font-size="12" x="514.0" y="22.0">b</text>
   <text fill="rgb(0, 0, 0)" font-family="Monospaced" font-size="12" x="506.0" y="19.0">0</text>
   <text fill="rgb(0, 0, 255)" font-family="Monospaced" font-size="16" font-weight="bold" x="531.0" y="24.0">Qd</text>
   <ellipse cx="489.0" cy="15.0" fill="rgb(0, 100, 0)" rx="2.0" ry="2.0" stroke="none" stroke-width="2.0"/>
</svg>
